<?xml version="1.0" standalone="no"?>
<!DOCTYPE svg PUBLIC "-//W3C//DTD SVG 20010904//EN"
 "http://www.w3.org/TR/2001/REC-SVG-20010904/DTD/svg10.dtd">
<svg version="1.0" xmlns="http://www.w3.org/2000/svg"
 width="300.000000pt" height="300.000000pt" viewBox="0 0 300.000000 300.000000"
 preserveAspectRatio="xMidYMid meet">

<g transform="translate(0.000000,300.000000) scale(0.100000,-0.100000)"
fill="#fff" stroke="none">
<path d="M1227 2743 c-4 -3 -7 -172 -7 -375 l0 -368 -307 -2 -308 -3 -5 -230
-5 -230 -222 -3 -223 -2 0 -500 0 -500 209 0 c115 0 216 -3 225 -6 13 -5 16
-25 16 -114 0 -60 3 -115 6 -124 6 -14 72 -16 643 -16 l638 0 11 23 c6 12 13
47 14 77 l3 55 160 5 160 5 0 1155 0 1155 -501 3 c-275 1 -504 -1 -507 -5z
m150 -75 c4 -7 10 -103 13 -213 l5 -200 90 -3 c148 -5 135 -26 135 212 0 177
2 205 16 210 23 9 507 7 522 -2 10 -7 12 -231 10 -1088 l-3 -1079 -125 0 -125
0 -5 745 -5 745 -290 2 c-159 2 -298 3 -307 3 -17 0 -18 23 -18 334 0 258 3
335 13 339 24 10 66 7 74 -5z m208 -188 l0 -195 -85 0 -85 0 -3 184 c-2 130 1
188 9 198 9 10 32 13 88 11 l76 -3 0 -195z m253 -1329 c2 -613 0 -776 -10
-783 -20 -12 -1126 -10 -1149 2 -19 10 -19 30 -19 773 0 583 3 766 12 775 9 9
148 12 588 10 l575 -3 3 -774z m-1254 303 c14 -5 16 -53 16 -429 0 -376 -2
-424 -16 -429 -31 -12 -349 -7 -362 6 -17 17 -17 829 0 846 13 13 331 18 362
6z"/>
<path d="M1350 1686 c0 -104 3 -125 16 -130 20 -8 322 -8 352 0 21 6 22 10 22
130 l0 124 -195 0 -195 0 0 -124z m368 14 c5 -130 19 -121 -176 -118 l-167 3
-3 98 -3 97 173 -2 173 -3 3 -75z"/>
<path d="M2340 910 l0 -480 249 0 c137 0 255 2 263 5 11 4 13 92 11 478 l-2
472 -261 3 -260 2 0 -480z m445 0 l0 -405 -190 0 -190 0 -3 395 c-1 217 0 401
3 408 3 10 47 12 192 10 l188 -3 0 -405z"/>
<path d="M2500 1190 c0 -6 38 -10 95 -10 57 0 95 4 95 10 0 6 -38 10 -95 10
-57 0 -95 -4 -95 -10z"/>
<path d="M2504 1061 c-15 -16 8 -21 91 -21 57 0 95 4 95 10 0 6 -3 10 -7 10
-57 4 -176 4 -179 1z"/>
<path d="M2500 910 c0 -6 38 -10 95 -10 57 0 95 4 95 10 0 6 -38 10 -95 10
-57 0 -95 -4 -95 -10z"/>
<path d="M2500 770 c0 -6 38 -10 95 -10 57 0 95 4 95 10 0 6 -38 10 -95 10
-57 0 -95 -4 -95 -10z"/>
<path d="M2500 630 c0 -6 38 -10 95 -10 57 0 95 4 95 10 0 6 -38 10 -95 10
-57 0 -95 -4 -95 -10z"/>
</g>
</svg>
