<?xml version="1.0" standalone="no"?>
<!DOCTYPE svg PUBLIC "-//W3C//DTD SVG 20010904//EN"
 "http://www.w3.org/TR/2001/REC-SVG-20010904/DTD/svg10.dtd">
<svg version="1.0" xmlns="http://www.w3.org/2000/svg"
 width="300.000000pt" height="300.000000pt" viewBox="0 0 300.000000 300.000000"
 preserveAspectRatio="xMidYMid meet">

<g transform="translate(0.000000,300.000000) scale(0.100000,-0.100000)"
fill="#000000" stroke="none">
<path d="M595 2958 c-3 -7 -4 -611 -3 -1343 l3 -1330 603 -5 c521 -4 604 -7
613 -20 5 -8 16 -26 23 -40 21 -39 108 -116 157 -139 146 -71 339 -38 449 77
85 89 121 192 121 341 -1 143 -34 239 -116 331 l-45 51 0 1044 0 1045 -900 0
c-711 0 -902 -3 -905 -12z m1743 -1051 c2 -866 0 -978 -13 -983 -8 -4 -23 0
-32 7 -11 10 -47 14 -127 13 -91 0 -119 -4 -156 -21 -74 -34 -129 -80 -169
-143 -63 -96 -75 -146 -75 -297 0 -87 -3 -133 -10 -133 -6 0 -251 0 -545 0
-419 0 -536 3 -543 12 -4 7 -8 573 -8 1259 0 958 3 1248 12 1257 9 9 204 12
838 10 l825 -3 3 -978z m-40 -1042 c89 -31 155 -106 187 -211 20 -65 20 -252
0 -318 -28 -93 -87 -160 -174 -198 -36 -16 -68 -21 -151 -21 -94 0 -111 3
-162 27 -72 34 -120 92 -150 182 -32 96 -32 272 1 355 30 79 83 137 156 170
52 24 72 28 155 28 60 1 111 -5 138 -14z"/>
<path d="M1397 2566 c-90 -44 -140 -112 -167 -224 -20 -87 5 -199 62 -279 l30
-42 -55 -143 c-30 -79 -53 -145 -51 -147 2 -2 26 6 53 18 27 11 56 21 64 21 7
0 23 -27 36 -65 24 -66 35 -78 44 -47 15 50 86 225 95 234 14 14 22 -3 67
-137 21 -61 41 -114 45 -118 4 -4 17 18 28 50 35 93 33 92 98 60 31 -15 59
-26 61 -23 3 3 -18 71 -46 152 -28 81 -51 154 -51 162 0 8 15 44 32 80 76 154
32 343 -100 430 -73 48 -169 55 -245 18z m208 -76 c88 -55 137 -192 103 -291
-55 -162 -222 -220 -336 -116 -61 57 -82 105 -82 193 0 55 5 80 25 120 25 48
89 106 130 117 39 11 125 -2 160 -23z m82 -482 c14 -18 73 -189 73 -210 0 -22
-12 -23 -51 -3 -33 17 -49 13 -49 -13 0 -27 -31 -65 -42 -54 -5 5 -25 56 -44
112 -38 110 -36 123 14 135 15 3 38 14 52 25 30 23 34 24 47 8z m-257 -36 c30
-11 56 -27 58 -34 4 -20 -71 -211 -85 -215 -6 -2 -18 15 -26 39 -15 45 -20 47
-79 32 -23 -5 -28 -3 -28 13 0 17 24 85 61 172 10 25 10 25 99 -7z"/>
<path d="M937 1374 c-4 -4 -4 -11 -1 -15 3 -5 260 -9 570 -9 448 0 565 3 562
13 -4 9 -127 13 -565 15 -308 1 -562 -1 -566 -4z"/>
<path d="M937 1233 c-4 -3 -7 -10 -7 -15 0 -4 257 -8 570 -8 500 0 570 2 570
15 0 13 -69 15 -563 15 -310 0 -567 -3 -570 -7z"/>
<path d="M930 1080 c0 -7 197 -10 570 -10 373 0 570 3 570 10 0 7 -197 10
-570 10 -373 0 -570 -3 -570 -10z"/>
<path d="M934 951 c-17 -17 52 -21 362 -21 236 0 355 3 352 10 -3 10 -704 20
-714 11z"/>
<path d="M2223 531 c-37 -61 -74 -110 -80 -111 -7 0 -29 22 -50 50 l-37 50
-23 -22 -23 -21 31 -41 c17 -23 47 -62 66 -88 19 -27 38 -48 42 -48 3 0 49 68
100 151 74 119 92 155 84 168 -23 37 -41 22 -110 -88z"/>
</g>
</svg>
