<?xml version="1.0" standalone="no"?>
<!DOCTYPE svg PUBLIC "-//W3C//DTD SVG 20010904//EN"
 "http://www.w3.org/TR/2001/REC-SVG-20010904/DTD/svg10.dtd">
<svg version="1.0" xmlns="http://www.w3.org/2000/svg"
 width="300.000000pt" height="300.000000pt" viewBox="0 0 300.000000 300.000000"
 preserveAspectRatio="xMidYMid meet">

<g transform="translate(0.000000,300.000000) scale(0.100000,-0.100000)"
fill="#000000" stroke="none">
<path d="M555 2508 c-3 -7 -6 -112 -7 -233 l-3 -220 -180 -5 c-110 -3 -180 -9
-180 -15 0 -6 70 -12 180 -15 l180 -5 0 -120 0 -120 -223 -5 c-138 -3 -222 -9
-222 -15 0 -6 84 -12 222 -15 l223 -5 3 -139 c2 -105 -1 -141 -10 -148 -7 -4
-122 -8 -255 -8 -155 0 -243 -4 -243 -10 0 -5 1 -11 3 -12 1 -1 115 -5 252 -8
l250 -5 5 -250 5 -250 57 -3 57 -3 3 -67 3 -67 135 -5 c152 -6 140 4 121 -95
-24 -125 26 -234 122 -265 20 -6 37 -16 37 -21 0 -12 48 -11 63 1 7 6 32 21
57 33 55 27 85 70 100 143 9 41 9 66 0 102 -6 26 -12 58 -13 72 l-2 25 319 3
c237 2 322 -1 333 -10 10 -8 14 -28 12 -57 -1 -25 -1 -51 0 -58 1 -8 27 -13
79 -15 74 -3 77 -4 80 -28 11 -93 62 -165 135 -191 20 -7 37 -17 37 -21 0 -4
14 -8 30 -8 17 0 30 4 30 9 0 5 14 14 30 20 73 25 130 100 130 170 0 16 6 34
13 40 9 7 86 12 213 13 l199 3 3 382 2 381 -32 20 c-18 10 -84 47 -145 82 -95
53 -114 68 -122 94 -5 17 -26 76 -46 131 -70 192 -76 210 -92 260 -9 28 -21
56 -26 63 -8 10 -62 12 -230 12 -172 -1 -222 2 -229 12 -6 8 -7 105 -3 236 l6
222 -731 0 c-575 0 -732 -3 -735 -12z m1396 -79 c7 -12 1 -1423 -6 -1447 -4
-9 -145 -12 -664 -12 l-661 0 -5 22 c-3 13 -4 111 -3 218 l3 195 244 5 c183 4
245 8 249 18 3 9 -49 12 -236 12 -192 0 -242 3 -251 14 -8 9 -11 57 -9 147 l3
134 284 5 c213 4 285 8 288 17 4 10 -60 13 -284 15 l-288 3 0 120 0 120 328 3
c280 2 327 4 327 17 0 13 -47 15 -327 17 l-328 3 0 190 0 189 23 6 c13 3 312
4 664 3 479 -2 643 -5 649 -14z m167 -686 l2 -233 245 0 245 0 123 -70 c67
-39 125 -78 129 -88 12 -31 9 -307 -4 -320 -7 -7 -42 -12 -85 -12 -58 0 -73
-3 -73 -15 0 -12 15 -15 73 -15 82 0 97 -9 97 -55 0 -46 -15 -55 -97 -55 -58
0 -73 -3 -73 -15 0 -12 15 -15 79 -15 89 0 91 -2 91 -76 0 -85 1 -84 -181 -84
-159 0 -199 7 -199 35 0 27 -65 83 -110 95 -97 26 -183 -7 -236 -91 -24 -38
-27 -40 -72 -37 l-47 3 -3 630 c-1 347 0 636 3 643 3 9 19 12 47 10 l43 -3 3
-232z m335 210 c8 -16 31 -77 52 -138 21 -60 48 -139 61 -174 41 -109 57 -101
-195 -101 -190 0 -220 2 -225 16 -10 27 -7 384 4 405 10 17 23 19 150 19 l139
0 14 -27z m-509 -1039 c9 -9 16 -32 16 -54 0 -75 27 -70 -363 -70 -337 0 -352
1 -395 21 -35 17 -56 21 -102 16 -31 -3 -69 -12 -82 -21 -21 -14 -50 -16 -169
-14 l-144 3 -3 51 c-2 39 1 53 13 57 8 4 189 7 403 8 335 2 783 11 804 17 4 1
14 -5 22 -14z m-745 -179 c17 -15 37 -46 46 -75 15 -46 15 -54 0 -99 -37 -114
-144 -139 -222 -53 -30 33 -33 41 -33 103 0 65 2 70 38 109 36 36 43 40 90 40
39 0 57 -6 81 -25z m1189 5 c57 -35 79 -130 48 -203 -46 -110 -194 -103 -242
12 -27 65 -9 138 46 185 39 33 100 35 148 6z"/>
<path d="M2120 1380 c0 -6 32 -10 75 -10 43 0 75 4 75 10 0 6 -32 10 -75 10
-43 0 -75 -4 -75 -10z"/>
</g>
</svg>
