<?xml version="1.0" encoding="UTF-8"?>
<!DOCTYPE svg PUBLIC "-//W3C//DTD SVG 1.1//EN" "http://www.w3.org/Graphics/SVG/1.1/DTD/svg11.dtd">
<svg xmlns="http://www.w3.org/2000/svg" version="1.1" width="59px" height="61px" style="shape-rendering:geometricPrecision; text-rendering:geometricPrecision; image-rendering:optimizeQuality; fill-rule:evenodd; clip-rule:evenodd" xmlns:xlink="http://www.w3.org/1999/xlink">
<g><path style="opacity:0.719" fill="#fff" d="M 20.5,-0.5 C 22.1667,-0.5 23.8333,-0.5 25.5,-0.5C 36.1712,3.61005 47.1712,6.94338 58.5,9.5C 58.5,22.8333 58.5,36.1667 58.5,49.5C 47.2162,52.5946 36.2162,56.2613 25.5,60.5C 24.1667,60.5 22.8333,60.5 21.5,60.5C 14.5173,50.8554 7.18401,41.5221 -0.5,32.5C -0.5,31.1667 -0.5,29.8333 -0.5,28.5C 6.85517,19.1365 13.8552,9.46985 20.5,-0.5 Z M 22.5,3.5 C 32.8301,6.55356 43.1635,9.72023 53.5,13C 54.8333,24 54.8333,35 53.5,46C 43.65,49.5052 33.8167,53.0052 24,56.5C 17.0996,47.937 10.5996,39.1037 4.5,30C 10.7062,21.2961 16.7062,12.4628 22.5,3.5 Z M 35.5,22.5 C 36.8086,24.5706 37.4752,27.0706 37.5,30C 37.1667,32.5 36.8333,35 36.5,37.5C 32.367,35.1979 28.367,32.6979 24.5,30C 28.3447,27.637 32.0113,25.137 35.5,22.5 Z"/></g>
<g><path style="opacity:0.783" fill="#fff" d="M 38.5,15.5 C 39.8271,19.951 40.4937,24.7843 40.5,30C 40.1667,34.8333 39.8333,39.6667 39.5,44.5C 31.7419,40.2291 24.4085,35.3957 17.5,30C 24.3848,24.9398 31.3848,20.1065 38.5,15.5 Z M 35.5,22.5 C 32.0113,25.137 28.3447,27.637 24.5,30C 28.367,32.6979 32.367,35.1979 36.5,37.5C 36.8333,35 37.1667,32.5 37.5,30C 37.4752,27.0706 36.8086,24.5706 35.5,22.5 Z"/></g>
</svg>
