<?xml version="1.0" encoding="UTF-8"?>
<!DOCTYPE svg PUBLIC "-//W3C//DTD SVG 1.1//EN" "http://www.w3.org/Graphics/SVG/1.1/DTD/svg11.dtd">
<svg xmlns="http://www.w3.org/2000/svg" version="1.1" width="59px" height="61px" style="shape-rendering:geometricPrecision; text-rendering:geometricPrecision; image-rendering:optimizeQuality; fill-rule:evenodd; clip-rule:evenodd" xmlns:xlink="http://www.w3.org/1999/xlink">
<g><path style="opacity:0.72" fill="#fff" d="M 32.5,-0.5 C 34.1667,-0.5 35.8333,-0.5 37.5,-0.5C 44.1448,9.46985 51.1448,19.1365 58.5,28.5C 58.5,29.8333 58.5,31.1667 58.5,32.5C 50.816,41.5221 43.4827,50.8554 36.5,60.5C 35.1667,60.5 33.8333,60.5 32.5,60.5C 21.7838,56.2613 10.7838,52.5946 -0.5,49.5C -0.5,36.1667 -0.5,22.8333 -0.5,9.5C 10.8288,6.94338 21.8288,3.61005 32.5,-0.5 Z M 34.5,3.5 C 40.9848,12.163 47.3181,20.9963 53.5,30C 47.4004,39.1037 40.9004,47.937 34,56.5C 24.1833,53.0052 14.35,49.5052 4.5,46C 3.16667,35 3.16667,24 4.5,13C 14.644,9.89456 24.644,6.72789 34.5,3.5 Z M 20.5,22.5 C 25.1051,24.4711 29.4385,26.9711 33.5,30C 29.633,32.6979 25.633,35.1979 21.5,37.5C 20.5059,32.544 20.1725,27.544 20.5,22.5 Z"/></g>
<g><path style="opacity:0.784" fill="#fff" d="M 17.5,15.5 C 25.8144,19.3229 33.481,24.1562 40.5,30C 33.5915,35.3957 26.2581,40.2291 18.5,44.5C 17.5016,34.8563 17.1682,25.1896 17.5,15.5 Z M 20.5,22.5 C 20.1725,27.544 20.5059,32.544 21.5,37.5C 25.633,35.1979 29.633,32.6979 33.5,30C 29.4385,26.9711 25.1051,24.4711 20.5,22.5 Z"/></g>
</svg>
